<svg xmlns="http://www.w3.org/2000/svg" xmlns:xlink="http://www.w3.org/1999/xlink"><symbol id="icon-burger"><path d="M1.137 0c-.15-.003-.3.021-.439.07C.558.12.432.195.326.288A.98.98 0 0 0 .08.614.877.877 0 0 0 0 1v2c0 .265.12.52.333.707.213.188.502.293.804.293h47.726c.15.003.3-.021.439-.07.14-.05.266-.123.372-.217a.98.98 0 0 0 .246-.327A.877.877 0 0 0 50 3V1c0-.265-.12-.52-.333-.707A1.22 1.22 0 0 0 48.863 0H1.137Zm0 10a1.25 1.25 0 0 0-.439.07c-.14.05-.266.123-.372.217a.98.98 0 0 0-.246.327A.877.877 0 0 0 0 11v2c0 .265.12.52.333.707.213.188.502.293.804.293h47.726c.15.003.3-.021.439-.07.14-.05.266-.123.372-.217a.98.98 0 0 0 .246-.327A.877.877 0 0 0 50 13v-2c0-.265-.12-.52-.333-.707a1.22 1.22 0 0 0-.804-.293H1.137Zm0 10c-.15-.003-.3.021-.439.07-.14.05-.266.123-.372.217a.98.98 0 0 0-.246.327A.877.877 0 0 0 0 21v2c0 .265.12.52.333.707.213.187.502.293.804.293h47.726c.15.003.3-.021.439-.07.14-.05.266-.124.372-.217a.98.98 0 0 0 .246-.327A.877.877 0 0 0 50 23v-2c0-.265-.12-.52-.333-.707a1.22 1.22 0 0 0-.804-.293H1.137Z" fill="currentColor"/></symbol><symbol id="icon-left-arrow"><path opacity=".3" d="M2.041 20.503 21.748 1.415A.821.821 0 0 0 22 .83a.801.801 0 0 0-.252-.585A.86.86 0 0 0 21.14 0a.882.882 0 0 0-.608.245L.252 19.909a.832.832 0 0 0-.252.59.81.81 0 0 0 .253.59l20.279 19.673a.894.894 0 0 0 .613.238.877.877 0 0 0 .473-.143.838.838 0 0 0 .313-.372.809.809 0 0 0-.183-.902L2.041 20.503Z" fill="#283645"/></symbol><symbol id="icon-no"><path d="m15.644 13.507 10.91-10.92a1.503 1.503 0 0 0 0-2.14 1.524 1.524 0 0 0-2.14 0l-10.909 10.92L2.586.447a1.504 1.504 0 0 0-2.14 0 1.524 1.524 0 0 0 0 2.14l10.92 10.92-10.92 10.91a1.503 1.503 0 0 0 0 2.139 1.514 1.514 0 0 0 2.14 0l10.919-10.91 10.909 10.91a1.514 1.514 0 0 0 2.14-2.14l-10.91-10.91Z" fill="#F25B26"/></symbol><symbol id="icon-quotes"><path d="M35.147 6.973 30.839 0C28.389 1.481 0 12.059 0 39.13 0 46.27.341 63 18.98 63c11.236 0 13.998-10.153 13.998-13.422 0-21.727-21.47-13.994-21.47-13.994 0-17.807 19.883-26.518 23.639-28.611ZM79 6.973 74.732 0c-2.43 1.481-30.849 12.059-30.849 39.13 0 7.14.342 23.87 18.99 23.87C74.1 63 76.86 52.847 76.86 49.578c0-21.727-21.47-13.994-21.47-13.994C55.391 17.777 75.315 9.066 79 6.973Z" fill="#EFEFEF"/></symbol><symbol id="icon-right-arrow"><path opacity=".3" d="M19.959 20.497.252 39.585A.822.822 0 0 0 0 40.17a.801.801 0 0 0 .252.585A.86.86 0 0 0 .86 41a.88.88 0 0 0 .608-.245l20.28-19.664a.834.834 0 0 0 .252-.59.811.811 0 0 0-.253-.59L1.468.239A.894.894 0 0 0 .855 0a.878.878 0 0 0-.473.143.838.838 0 0 0-.313.372.81.81 0 0 0 .183.902l19.707 19.08Z" fill="#283645"/></symbol><symbol id="icon-tick"><path d="M21.7.284a1.024 1.024 0 0 0-1.42 0L6.704 13.603 1.735 8.729a1.015 1.015 0 0 0-.72-.294 1.031 1.031 0 0 0-.72.294.985.985 0 0 0 0 1.403l5.688 5.58a1.016 1.016 0 0 0 .72.288c.266-.001.521-.105.71-.289L21.7 1.697A.995.995 0 0 0 22 .99a.978.978 0 0 0-.3-.707Z" fill="#D22856"/></symbol><symbol id="icon-yes"><path d="M30.556.43a1.54 1.54 0 0 0-.499-.318 1.607 1.607 0 0 0-1.179 0 1.54 1.54 0 0 0-.499.318L10.374 17.496 2.578 10.11a1.582 1.582 0 0 0-1.072-.39 1.576 1.576 0 0 0-1.057.425c-.28.266-.442.625-.449 1.001-.007.377.14.74.411 1.016l8.88 8.412c.142.135.31.243.497.316a1.596 1.596 0 0 0 1.67-.316L30.556 2.482c.284-.274.444-.642.444-1.026S30.84.703 30.556.43Z" fill="#3DC644"/></symbol></svg>