<svg xmlns="http://www.w3.org/2000/svg" xmlns:xlink="http://www.w3.org/1999/xlink"><symbol id="icon-arrow"><path opacity=".3" d="M2.041 20.503 21.748 1.415A.821.821 0 0 0 22 .83a.801.801 0 0 0-.252-.585A.86.86 0 0 0 21.14 0a.882.882 0 0 0-.608.245L.252 19.909a.832.832 0 0 0-.252.59.81.81 0 0 0 .253.59l20.279 19.673a.894.894 0 0 0 .613.238.877.877 0 0 0 .473-.143.838.838 0 0 0 .313-.372.809.809 0 0 0-.183-.902L2.041 20.503Z" fill="currentColor"/></symbol><symbol id="icon-burger"><path d="M1.137 0c-.15-.003-.3.021-.439.07C.558.12.432.195.326.288A.98.98 0 0 0 .08.614.877.877 0 0 0 0 1v2c0 .265.12.52.333.707.213.188.502.293.804.293h47.726c.15.003.3-.021.439-.07.14-.05.266-.123.372-.217a.98.98 0 0 0 .246-.327A.877.877 0 0 0 50 3V1c0-.265-.12-.52-.333-.707A1.22 1.22 0 0 0 48.863 0H1.137Zm0 10a1.25 1.25 0 0 0-.439.07c-.14.05-.266.123-.372.217a.98.98 0 0 0-.246.327A.877.877 0 0 0 0 11v2c0 .265.12.52.333.707.213.188.502.293.804.293h47.726c.15.003.3-.021.439-.07.14-.05.266-.123.372-.217a.98.98 0 0 0 .246-.327A.877.877 0 0 0 50 13v-2c0-.265-.12-.52-.333-.707a1.22 1.22 0 0 0-.804-.293H1.137Zm0 10c-.15-.003-.3.021-.439.07-.14.05-.266.123-.372.217a.98.98 0 0 0-.246.327A.877.877 0 0 0 0 21v2c0 .265.12.52.333.707.213.187.502.293.804.293h47.726c.15.003.3-.021.439-.07.14-.05.266-.124.372-.217a.98.98 0 0 0 .246-.327A.877.877 0 0 0 50 23v-2c0-.265-.12-.52-.333-.707a1.22 1.22 0 0 0-.804-.293H1.137Z" fill="currentColor"/></symbol><symbol id="icon-close"><path d="M20.849 0 0 20.849 2.151 23 23 2.151 20.849 0Z" fill="currentColor"/><path d="M2.151 0 0 2.151 20.849 23 23 20.849 2.151 0Z" fill="currentColor"/></symbol><symbol id="icon-no"><path d="m15.644 13.507 10.91-10.92a1.503 1.503 0 0 0 0-2.14 1.524 1.524 0 0 0-2.14 0l-10.909 10.92L2.586.447a1.504 1.504 0 0 0-2.14 0 1.524 1.524 0 0 0 0 2.14l10.92 10.92-10.92 10.91a1.503 1.503 0 0 0 0 2.139 1.514 1.514 0 0 0 2.14 0l10.919-10.91 10.909 10.91a1.514 1.514 0 0 0 2.14-2.14l-10.91-10.91Z" fill="#F25B26"/></symbol><symbol id="icon-quotes"><path d="M35.147 6.973 30.839 0C28.389 1.481 0 12.059 0 39.13 0 46.27.341 63 18.98 63c11.236 0 13.998-10.153 13.998-13.422 0-21.727-21.47-13.994-21.47-13.994 0-17.807 19.883-26.518 23.639-28.611ZM79 6.973 74.732 0c-2.43 1.481-30.849 12.059-30.849 39.13 0 7.14.342 23.87 18.99 23.87C74.1 63 76.86 52.847 76.86 49.578c0-21.727-21.47-13.994-21.47-13.994C55.391 17.777 75.315 9.066 79 6.973Z" fill="#EFEFEF"/></symbol><symbol id="icon-right-arrow"><path opacity=".3" d="M19.959 20.497.252 39.585A.822.822 0 0 0 0 40.17a.801.801 0 0 0 .252.585A.86.86 0 0 0 .86 41a.88.88 0 0 0 .608-.245l20.28-19.664a.834.834 0 0 0 .252-.59.811.811 0 0 0-.253-.59L1.468.239A.894.894 0 0 0 .855 0a.878.878 0 0 0-.473.143.838.838 0 0 0-.313.372.81.81 0 0 0 .183.902l19.707 19.08Z" fill="#283645"/></symbol><symbol id="icon-telegram"><path d="M15.704 1.202 13.326 12.41c-.18.79-.647.988-1.311.615l-3.622-2.668-1.747 1.68c-.193.194-.355.355-.728.355l.26-3.687 6.712-6.065c.292-.26-.064-.404-.453-.144L4.14 7.721.569 6.603c-.777-.243-.791-.777.162-1.15L14.7.07c.647-.242 1.213.144 1.002 1.133v-.001Z" fill="#D22856"/></symbol><symbol id="icon-tick"><path d="M21.7.284a1.024 1.024 0 0 0-1.42 0L6.704 13.603 1.735 8.729a1.015 1.015 0 0 0-.72-.294 1.031 1.031 0 0 0-.72.294.985.985 0 0 0 0 1.403l5.688 5.58a1.016 1.016 0 0 0 .72.288c.266-.001.521-.105.71-.289L21.7 1.697A.995.995 0 0 0 22 .99a.978.978 0 0 0-.3-.707Z" fill="#D22856"/></symbol><symbol id="icon-vk"><path fill-rule="evenodd" clip-rule="evenodd" d="M17.587.711c.125-.41 0-.711-.596-.711h-1.968c-.502 0-.732.26-.858.547 0 0-1.001 2.397-2.42 3.955-.458.451-.667.594-.917.594-.125 0-.314-.143-.314-.553V.71c0-.492-.138-.711-.555-.711H6.863c-.313 0-.5.228-.5.445 0 .465.709.573.781 1.884v2.849c0 .625-.114.738-.365.738-.667 0-2.291-2.408-3.255-5.164C3.337.216 3.148 0 2.645 0H.675C.112 0 0 .26 0 .547 0 1.06.667 3.6 3.109 6.962 4.736 9.256 7.027 10.5 9.115 10.5c1.252 0 1.406-.276 1.406-.752V8.013c0-.553.118-.663.515-.663.293 0 .793.144 1.962 1.25 1.335 1.312 1.554 1.9 2.306 1.9h1.969c.562 0 .844-.276.682-.822-.178-.543-.816-1.331-1.661-2.267-.46-.532-1.148-1.106-1.357-1.393-.292-.368-.208-.532 0-.86 0 0 2.4-3.32 2.65-4.447Z" fill="#D22856"/></symbol><symbol id="icon-yes"><path d="M30.556.43a1.54 1.54 0 0 0-.499-.318 1.607 1.607 0 0 0-1.179 0 1.54 1.54 0 0 0-.499.318L10.374 17.496 2.578 10.11a1.582 1.582 0 0 0-1.072-.39 1.576 1.576 0 0 0-1.057.425c-.28.266-.442.625-.449 1.001-.007.377.14.74.411 1.016l8.88 8.412c.142.135.31.243.497.316a1.596 1.596 0 0 0 1.67-.316L30.556 2.482c.284-.274.444-.642.444-1.026S30.84.703 30.556.43Z" fill="#3DC644"/></symbol><symbol id="icon-youtube"><path d="M1.834 12.809a1.257 1.257 0 0 1-1.285.03 1.097 1.097 0 0 1-.443-.457.97.97 0 0 1-.092-.603V1.221A.97.97 0 0 1 .106.618C.2.429.355.27.549.16a1.256 1.256 0 0 1 1.285.031l12.4 5.502c1.022.445 1.022 1.169 0 1.614l-12.4 5.502Z" fill="#D22856"/></symbol><symbol id="logo-footer-desktop"><path d="M72.193 18.425c0-.333.133-.652.369-.89.237-.238.558-.376.897-.384h7.211c5.113 0 8.477 2.676 8.477 7.06v.06c0 4.798-4.078 7.287-8.899 7.287h-5.494v6.734a1.243 1.243 0 0 1-.332.965 1.286 1.286 0 0 1-.948.41 1.304 1.304 0 0 1-.949-.41 1.26 1.26 0 0 1-.332-.965V18.425Zm8.156 10.861c3.746 0 6.207-1.974 6.207-4.937v-.059c0-3.18-2.42-4.828-6.026-4.828h-5.725v9.785l5.544.04ZM94.019 18.267a1.244 1.244 0 0 1 .332-.965 1.287 1.287 0 0 1 .948-.41 1.304 1.304 0 0 1 .949.41 1.26 1.26 0 0 1 .332.965v20.024a1.245 1.245 0 0 1-.332.966 1.285 1.285 0 0 1-.949.41 1.304 1.304 0 0 1-.948-.41 1.26 1.26 0 0 1-.332-.965V18.267ZM103.199 18.296a1.25 1.25 0 0 1 .38-.867c.236-.23.553-.362.885-.367h.352c.261.005.516.075.743.203.226.127.416.309.552.528l13.751 17.23V18.237c0-.325.131-.636.364-.866a1.259 1.259 0 0 1 1.762 0c.233.23.364.541.364.866v20.094a1.117 1.117 0 0 1-.711 1.082 1.16 1.16 0 0 1-.454.083h-.13a1.739 1.739 0 0 1-.756-.231 1.708 1.708 0 0 1-.57-.54L105.67 21.092v17.24a1.238 1.238 0 0 1-.353.853c-.224.23-.529.366-.853.38a1.257 1.257 0 0 1-.871-.368 1.21 1.21 0 0 1-.354-.865V18.296h-.04ZM128.74 18.267a1.26 1.26 0 0 1 .763-1.268 1.304 1.304 0 0 1 1.466.303 1.25 1.25 0 0 1 .333.965v12.175l12.896-13.004c.264-.27.624-.428 1.004-.445.329.013.64.149.87.38.23.232.361.541.366.864a1.277 1.277 0 0 1-.422.889l-8.035 7.82 8.668 10.427c.226.258.351.588.351.928a1.283 1.283 0 0 1-.41.91 1.322 1.322 0 0 1-.946.354 1.228 1.228 0 0 1-1.004-.572l-8.447-10.358-4.891 4.799v4.838a1.257 1.257 0 0 1-.788 1.159 1.297 1.297 0 0 1-1.39-.273 1.257 1.257 0 0 1-.374-.886V18.267h-.01Z" fill="currentColor"/><path d="M98.94 9.746a3.678 3.678 0 0 1-2.575-1.047 3.554 3.554 0 0 1-1.07-2.528c0 .948-.384 1.858-1.066 2.528a3.668 3.668 0 0 1-2.57 1.047c.964.002 1.89.381 2.57 1.053a3.554 3.554 0 0 1 1.065 2.531c.003-.95.388-1.86 1.07-2.531a3.688 3.688 0 0 1 2.576-1.053ZM43.287 19.067h.733a2.47 2.47 0 0 0-.905-.887 2.524 2.524 0 0 0-1.234-.328c-.418 0-.826-.129-1.166-.368a1.978 1.978 0 0 1-.732-.965c-.724.205-1.427.476-2.1.81h.191c.533 0 1.044.208 1.42.578.377.37.59.873.59 1.396.004.096.004.191 0 .287a8.974 8.974 0 0 1 3.203-.523Z" fill="#D22856"/><path d="m60.733 27.647-5.192-21.08C55.179 4.245 52.929 0 46.903 0c-.4 0-.783.156-1.066.434a1.469 1.469 0 0 0-.44 1.047c0 .393.158.77.44 1.047a1.52 1.52 0 0 0 1.066.434c4.871 0 5.594 3.683 5.665 4.088l4.78 19.452H55.25a11.721 11.721 0 0 0-1.724-4.78 11.946 11.946 0 0 0-3.599-3.633 2.502 2.502 0 0 0-1.116.908c-.274.404-.42.878-.42 1.363.005.086.005.171 0 .257a9.148 9.148 0 0 1 2.922 3.207 8.974 8.974 0 0 1 1.095 4.169 9.042 9.042 0 0 1-.14 1.48 8.85 8.85 0 0 1-3.05 5.393 9.132 9.132 0 0 1-5.885 2.141 9.132 9.132 0 0 1-5.885-2.141 8.849 8.849 0 0 1-3.049-5.392 9.042 9.042 0 0 1-.14-1.481c.015-1.37.341-2.72.954-3.95a2.023 2.023 0 0 1-1.33-.625 1.957 1.957 0 0 1-.538-1.35.694.694 0 0 0-.191-.483 11.566 11.566 0 0 0-1.798 4.936h-1.868a11.782 11.782 0 0 0-3.933-7.54 12.17 12.17 0 0 0-8.05-3.03 12.17 12.17 0 0 0-8.05 3.03 11.782 11.782 0 0 0-3.932 7.54H3.443L8.233 7.05c.061-.405.814-4.088 5.666-4.088.4 0 .783-.156 1.065-.434.282-.277.441-.654.441-1.047 0-.393-.159-.77-.441-1.047A1.52 1.52 0 0 0 13.899 0C7.872 0 5.623 4.246 5.26 6.566L.058 27.647a1.38 1.38 0 0 0 .247 1.263 1.446 1.446 0 0 0 1.19.534h4.017c.082.611.21 1.215.382 1.807a.731.731 0 0 0 .1-.355c0-.524.212-1.026.589-1.397.376-.37.887-.578 1.42-.578.162.004.324.024.482.06a8.536 8.536 0 0 1-.07-.988c.002-.497.046-.992.13-1.481a8.848 8.848 0 0 1 3.042-5.414 9.131 9.131 0 0 1 5.897-2.152c2.165 0 4.258.764 5.898 2.152a8.848 8.848 0 0 1 3.041 5.414c.085.49.128.984.131 1.48a8.775 8.775 0 0 1-1.334 4.7 8.984 8.984 0 0 1-3.656 3.298 9.174 9.174 0 0 1-9.503-.858 2.03 2.03 0 0 1-1.306.483.76.76 0 0 0-.526.22.734.734 0 0 0-.217.521 1.946 1.946 0 0 1-.181.8 12.088 12.088 0 0 0 7.643 2.705 12.174 12.174 0 0 0 8.012-2.951 11.789 11.789 0 0 0 4-7.436h1.829a11.784 11.784 0 0 0 3.944 7.51A12.171 12.171 0 0 0 43.292 40c2.964 0 5.823-1.073 8.033-3.015a11.784 11.784 0 0 0 3.944-7.511h4.018c.232.016.465-.024.678-.117.212-.093.398-.236.541-.417a1.38 1.38 0 0 0 .227-1.293Z" fill="#D22856"/><path d="M50.92 15.917a4.577 4.577 0 0 1-1.729-.335 4.516 4.516 0 0 1-1.466-.96 4.43 4.43 0 0 1-.98-1.44 4.37 4.37 0 0 1-.344-1.699 4.406 4.406 0 0 1-1.328 3.136 4.56 4.56 0 0 1-3.192 1.298 4.57 4.57 0 0 1 3.193 1.304 4.416 4.416 0 0 1 1.327 3.14c0-1.18.476-2.31 1.323-3.143a4.56 4.56 0 0 1 3.196-1.301ZM38.074 19.383a2.786 2.786 0 0 1-1.953-.796 2.692 2.692 0 0 1-.809-1.92c0 .719-.29 1.408-.805 1.917a2.786 2.786 0 0 1-1.947.799c.73 0 1.43.285 1.946.792.516.508.806 1.196.806 1.913a2.692 2.692 0 0 1 .813-1.913 2.786 2.786 0 0 1 1.95-.792ZM10.785 33.64a2.786 2.786 0 0 1-1.94-.802 2.692 2.692 0 0 1-.802-1.913c0 .719-.29 1.408-.805 1.917a2.786 2.786 0 0 1-1.947.799c.73.002 1.43.29 1.947.798.515.51.805 1.199.805 1.917 0-.717.288-1.404.802-1.913a2.786 2.786 0 0 1 1.94-.802Z" fill="#283645"/></symbol><symbol id="logo-footer"><path d="M71.005 18.549c0-.337.13-.66.365-.9.234-.24.552-.379.887-.387h7.133c5.057 0 8.385 2.703 8.385 7.13v.06c0 4.846-4.034 7.358-8.802 7.358h-5.435v6.801a1.282 1.282 0 0 1-.754 1.28 1.27 1.27 0 0 1-1.717-.758 1.282 1.282 0 0 1-.062-.522V18.549Zm8.067 10.968c3.706 0 6.14-1.994 6.14-4.986v-.06c0-3.21-2.395-4.875-5.961-4.875h-5.663v9.881l5.484.04ZM92.594 18.389a1.282 1.282 0 0 1 .754-1.28 1.269 1.269 0 0 1 1.717.758c.056.168.078.346.062.522v20.222a1.28 1.28 0 0 1-.754 1.28 1.27 1.27 0 0 1-1.717-.758 1.282 1.282 0 0 1-.063-.522V18.389ZM101.674 18.419a1.278 1.278 0 0 1 1.252-1.247h.347a1.535 1.535 0 0 1 1.282.738l13.601 17.4V18.36c0-.329.13-.643.361-.875a1.229 1.229 0 0 1 1.742 0c.231.232.361.546.361.874v20.292c.005.154-.021.308-.076.452a1.13 1.13 0 0 1-1.077.725h-.129a1.69 1.69 0 0 1-1.311-.778l-13.909-17.81v17.41a1.257 1.257 0 0 1-1.192 1.247 1.23 1.23 0 0 1-1.212-1.246V18.419h-.04ZM126.938 18.389a1.284 1.284 0 0 1 .755-1.28 1.267 1.267 0 0 1 1.45.306 1.287 1.287 0 0 1 .329.974v12.295l12.756-13.133c.262-.271.617-.432.994-.448.325.012.633.15.86.383.227.234.357.546.362.873a1.28 1.28 0 0 1-.418.897l-7.948 7.898 8.574 10.53c.224.26.348.593.348.937a1.309 1.309 0 0 1-1.341 1.276 1.228 1.228 0 0 1-.994-.578l-8.365-10.46-4.828 4.846v4.886a1.278 1.278 0 0 1-.37.895 1.26 1.26 0 0 1-2.154-.895V18.389h-.01Z" fill="currentColor"/><path fill-rule="evenodd" clip-rule="evenodd" d="m53.892 6.586 5.038 21.145a1.418 1.418 0 0 1-.22 1.297 1.356 1.356 0 0 1-1.183.535H53.52c-.69 5.812-5.57 10.315-11.489 10.315-5.917 0-10.798-4.503-11.488-10.314h-1.965C27.887 35.442 22.953 40 16.968 40c-5.994 0-10.934-4.573-11.612-10.466H1.45a1.364 1.364 0 0 1-1.154-.536 1.418 1.418 0 0 1-.24-1.267L5.106 6.586C5.455 4.26 7.639 0 13.486 0c.388 0 .76.157 1.034.435.274.279.428.657.428 1.05 0 .395-.154.772-.428 1.051a1.45 1.45 0 0 1-1.034.435c-4.707 0-5.438 3.694-5.497 4.1L3.341 26.602h2.034c.746-5.817 5.652-10.31 11.593-10.31 5.939 0 10.843 4.488 11.593 10.3l1.998.01c.745-5.75 5.598-10.189 11.473-10.189 5.886 0 10.746 4.456 11.477 10.222v-.053h2.137l-4.639-19.51c-.068-.407-.77-4.1-5.497-4.1a1.45 1.45 0 0 1-1.033-.436 1.498 1.498 0 0 1-.428-1.05c0-.394.154-.772.428-1.05A1.45 1.45 0 0 1 45.51 0c5.848 0 8.03 4.259 8.382 6.586Zm-28.22 22.977a9.122 9.122 0 0 0-.022-2.97c-.725-4.195-4.336-7.383-8.681-7.383-4.349 0-7.961 3.192-8.683 7.391a9.114 9.114 0 0 0-.025 2.94c.66 4.273 4.308 7.541 8.707 7.541 4.392 0 8.034-3.257 8.704-7.518Zm24.942 0c.073-.461.112-.934.112-1.417 0-4.868-3.893-8.815-8.694-8.815-4.802 0-8.695 3.947-8.695 8.815 0 .482.039.956.112 1.418.669 4.194 4.257 7.397 8.583 7.397 4.325 0 7.913-3.203 8.582-7.397Z" fill="#D22856"/></symbol><symbol id="logo-header-desktop"><path d="M72.193 18.425c0-.333.133-.652.369-.89.237-.238.558-.376.897-.384h7.211c5.113 0 8.477 2.676 8.477 7.06v.06c0 4.798-4.078 7.287-8.899 7.287h-5.494v6.734a1.243 1.243 0 0 1-.332.965 1.286 1.286 0 0 1-.948.41 1.304 1.304 0 0 1-.949-.41 1.26 1.26 0 0 1-.332-.965V18.425Zm8.156 10.861c3.746 0 6.207-1.974 6.207-4.937v-.059c0-3.18-2.42-4.828-6.026-4.828h-5.725v9.785l5.544.04ZM94.019 18.267a1.244 1.244 0 0 1 .332-.965 1.287 1.287 0 0 1 .948-.41 1.304 1.304 0 0 1 .949.41 1.26 1.26 0 0 1 .332.965v20.024a1.245 1.245 0 0 1-.332.966 1.285 1.285 0 0 1-.949.41 1.304 1.304 0 0 1-.948-.41 1.26 1.26 0 0 1-.332-.965V18.267ZM103.199 18.296a1.25 1.25 0 0 1 .38-.867c.236-.23.553-.362.885-.367h.352c.261.005.516.075.743.203.226.127.416.309.552.528l13.751 17.23V18.237c0-.325.131-.636.364-.866a1.259 1.259 0 0 1 1.762 0c.233.23.364.541.364.866v20.094a1.117 1.117 0 0 1-.711 1.082 1.16 1.16 0 0 1-.454.083h-.13a1.739 1.739 0 0 1-.756-.231 1.708 1.708 0 0 1-.57-.54L105.67 21.092v17.24a1.238 1.238 0 0 1-.353.853c-.224.23-.529.366-.853.38a1.257 1.257 0 0 1-.871-.368 1.21 1.21 0 0 1-.354-.865V18.296h-.04ZM128.74 18.267a1.26 1.26 0 0 1 .763-1.268 1.304 1.304 0 0 1 1.466.303 1.25 1.25 0 0 1 .333.965v12.175l12.896-13.004c.264-.27.624-.428 1.004-.445.329.013.64.149.87.38.23.232.361.541.366.864a1.277 1.277 0 0 1-.422.889l-8.035 7.82 8.668 10.427c.226.258.351.588.351.928a1.283 1.283 0 0 1-.41.91 1.322 1.322 0 0 1-.946.354 1.228 1.228 0 0 1-1.004-.572l-8.447-10.358-4.891 4.799v4.838a1.257 1.257 0 0 1-.788 1.159 1.297 1.297 0 0 1-1.39-.273 1.257 1.257 0 0 1-.374-.886V18.267h-.01Z" fill="currentColor"/><path d="M98.94 9.746a3.678 3.678 0 0 1-2.575-1.047 3.554 3.554 0 0 1-1.07-2.528c0 .948-.384 1.858-1.066 2.528a3.668 3.668 0 0 1-2.57 1.047c.964.002 1.89.381 2.57 1.053a3.554 3.554 0 0 1 1.065 2.531c.003-.95.388-1.86 1.07-2.531a3.688 3.688 0 0 1 2.576-1.053Z" fill="#D22856"/><path d="M43.287 19.067h.733a2.47 2.47 0 0 0-.905-.887 2.524 2.524 0 0 0-1.234-.328c-.418 0-.826-.129-1.166-.368a1.978 1.978 0 0 1-.732-.965c-.724.205-1.427.476-2.1.81h.191c.533 0 1.044.208 1.42.578.377.37.59.873.59 1.396.004.096.004.191 0 .287a8.974 8.974 0 0 1 3.203-.523Z" fill="currentColor"/><path d="m60.733 27.647-5.192-21.08C55.179 4.245 52.929 0 46.903 0c-.4 0-.783.156-1.066.434a1.469 1.469 0 0 0-.44 1.047c0 .393.158.77.44 1.047a1.52 1.52 0 0 0 1.066.434c4.871 0 5.594 3.683 5.665 4.088l4.78 19.452H55.25a11.721 11.721 0 0 0-1.724-4.78 11.946 11.946 0 0 0-3.599-3.633 2.502 2.502 0 0 0-1.116.908c-.274.404-.42.878-.42 1.363.005.086.005.171 0 .257a9.148 9.148 0 0 1 2.922 3.207 8.974 8.974 0 0 1 1.095 4.169 9.042 9.042 0 0 1-.14 1.48 8.849 8.849 0 0 1-3.05 5.393 9.132 9.132 0 0 1-5.885 2.141 9.132 9.132 0 0 1-5.885-2.141 8.849 8.849 0 0 1-3.049-5.392 9.031 9.031 0 0 1-.14-1.481c.015-1.37.341-2.72.954-3.95a2.023 2.023 0 0 1-1.33-.625 1.957 1.957 0 0 1-.538-1.35.694.694 0 0 0-.191-.483 11.566 11.566 0 0 0-1.798 4.936h-1.868a11.782 11.782 0 0 0-3.933-7.54 12.17 12.17 0 0 0-8.05-3.03 12.17 12.17 0 0 0-8.05 3.03 11.782 11.782 0 0 0-3.932 7.54H3.443L8.233 7.05c.061-.405.814-4.088 5.666-4.088.4 0 .783-.156 1.065-.434.282-.277.441-.654.441-1.047 0-.393-.159-.77-.441-1.047A1.52 1.52 0 0 0 13.899 0C7.872 0 5.623 4.246 5.26 6.566L.058 27.647a1.38 1.38 0 0 0 .247 1.263c.14.176.322.316.529.41.207.092.433.135.66.124h4.018c.082.611.21 1.215.382 1.807a.731.731 0 0 0 .1-.355c0-.524.212-1.026.589-1.397.376-.37.887-.578 1.42-.578.162.004.324.024.482.06a8.536 8.536 0 0 1-.07-.988c.002-.497.046-.992.13-1.481a8.848 8.848 0 0 1 3.042-5.414 9.131 9.131 0 0 1 5.897-2.152c2.165 0 4.258.764 5.898 2.152a8.848 8.848 0 0 1 3.041 5.414c.085.49.128.984.131 1.48a8.775 8.775 0 0 1-1.334 4.7 8.984 8.984 0 0 1-3.656 3.298 9.174 9.174 0 0 1-9.503-.858c-.363.31-.826.48-1.306.483a.76.76 0 0 0-.526.22.734.734 0 0 0-.217.521 1.946 1.946 0 0 1-.181.8 12.088 12.088 0 0 0 7.643 2.705 12.174 12.174 0 0 0 8.012-2.951 11.789 11.789 0 0 0 4-7.436h1.829a11.784 11.784 0 0 0 3.944 7.51A12.171 12.171 0 0 0 43.292 40c2.964 0 5.823-1.073 8.033-3.015a11.784 11.784 0 0 0 3.944-7.511h4.018c.232.016.465-.024.678-.117.212-.093.398-.236.541-.417a1.38 1.38 0 0 0 .227-1.293Z" fill="currentColor"/><path d="M50.92 15.917a4.577 4.577 0 0 1-1.729-.335 4.516 4.516 0 0 1-1.466-.96 4.43 4.43 0 0 1-.98-1.44 4.37 4.37 0 0 1-.344-1.699 4.406 4.406 0 0 1-1.328 3.136 4.56 4.56 0 0 1-3.192 1.298 4.57 4.57 0 0 1 3.193 1.304 4.416 4.416 0 0 1 1.327 3.14c0-1.18.476-2.31 1.323-3.143a4.56 4.56 0 0 1 3.196-1.301ZM38.074 19.383a2.786 2.786 0 0 1-1.953-.796 2.692 2.692 0 0 1-.809-1.92c0 .719-.29 1.408-.805 1.917a2.786 2.786 0 0 1-1.947.799c.73 0 1.43.285 1.946.792.516.508.806 1.196.806 1.913a2.692 2.692 0 0 1 .813-1.913 2.786 2.786 0 0 1 1.95-.792ZM10.785 33.64a2.786 2.786 0 0 1-1.94-.802 2.692 2.692 0 0 1-.802-1.913c0 .719-.29 1.408-.805 1.917a2.786 2.786 0 0 1-1.947.799c.73.002 1.43.29 1.947.798.515.51.805 1.199.805 1.917 0-.717.288-1.404.802-1.913a2.786 2.786 0 0 1 1.94-.802Z" fill="#D22856"/></symbol><symbol id="logo-header-mobile"><path d="M.005 1.549c0-.336.13-.66.365-.9C.604.41.922.27 1.257.262H8.39c5.057 0 8.385 2.703 8.385 7.13v.06c0 4.846-4.033 7.358-8.802 7.358H2.538v6.801a1.28 1.28 0 0 1-.754 1.28 1.269 1.269 0 0 1-1.717-.758 1.28 1.28 0 0 1-.062-.522V1.549Zm8.067 10.968c3.706 0 6.14-1.994 6.14-4.986v-.06c0-3.21-2.394-4.875-5.961-4.875H2.588v9.881l5.484.04ZM21.593 1.389a1.282 1.282 0 0 1 .755-1.28 1.268 1.268 0 0 1 1.717.758c.056.168.077.346.062.522v20.222a1.28 1.28 0 0 1-.754 1.28 1.27 1.27 0 0 1-1.717-.758 1.282 1.282 0 0 1-.063-.522V1.389ZM30.674 1.419A1.278 1.278 0 0 1 31.926.173h.348a1.535 1.535 0 0 1 1.281.737l13.6 17.4V1.36A1.239 1.239 0 0 1 48.389.122c.327 0 .64.13.871.362.231.232.36.546.36.874v20.292a1.14 1.14 0 0 1-.703 1.092 1.13 1.13 0 0 1-.449.085h-.129a1.695 1.695 0 0 1-1.311-.778L33.117 4.24v17.41a1.258 1.258 0 0 1-1.191 1.247 1.238 1.238 0 0 1-1.212-1.247V1.42h-.04ZM55.938 1.389a1.282 1.282 0 0 1 .755-1.28 1.268 1.268 0 0 1 1.717.758c.056.168.077.346.062.522v12.295L71.228.55c.262-.271.618-.432.994-.448a1.27 1.27 0 0 1 1.222 1.256 1.29 1.29 0 0 1-.418.898l-7.947 7.897 8.573 10.53c.224.26.348.593.348.937a1.312 1.312 0 0 1-.838 1.191 1.228 1.228 0 0 1-1.497-.493L63.3 11.859l-4.828 4.846v4.886a1.27 1.27 0 0 1-.78 1.17 1.259 1.259 0 0 1-1.648-.685 1.27 1.27 0 0 1-.096-.485V1.389h-.01Z" fill="currentColor"/></symbol><symbol id="logo-header-tablet"><path fill-rule="evenodd" clip-rule="evenodd" d="m53.892 6.586 5.038 21.145a1.418 1.418 0 0 1-.22 1.297 1.356 1.356 0 0 1-1.183.535H53.52c-.69 5.812-5.57 10.315-11.489 10.315-5.917 0-10.798-4.503-11.488-10.314h-1.965C27.887 35.442 22.953 40 16.968 40c-5.994 0-10.934-4.573-11.612-10.466H1.45a1.364 1.364 0 0 1-1.154-.536 1.418 1.418 0 0 1-.24-1.267L5.106 6.586C5.455 4.26 7.639 0 13.486 0c.388 0 .76.157 1.034.435.274.279.428.657.428 1.05 0 .395-.154.772-.428 1.051a1.45 1.45 0 0 1-1.034.435c-4.707 0-5.438 3.694-5.497 4.1L3.341 26.602h2.034c.746-5.817 5.652-10.31 11.593-10.31 5.939 0 10.843 4.488 11.593 10.3l1.998.01c.745-5.75 5.598-10.189 11.473-10.189 5.886 0 10.746 4.456 11.477 10.222v-.053h2.137l-4.639-19.51c-.068-.407-.77-4.1-5.497-4.1a1.45 1.45 0 0 1-1.033-.436 1.498 1.498 0 0 1-.428-1.05c0-.394.154-.772.428-1.05A1.45 1.45 0 0 1 45.51 0c5.848 0 8.03 4.259 8.382 6.586Zm-28.22 22.977a9.122 9.122 0 0 0-.022-2.97c-.725-4.195-4.336-7.383-8.681-7.383-4.349 0-7.961 3.192-8.683 7.391a9.114 9.114 0 0 0-.025 2.94c.66 4.273 4.308 7.541 8.707 7.541 4.392 0 8.034-3.257 8.704-7.518Zm24.942 0c.073-.461.112-.934.112-1.417 0-4.868-3.893-8.815-8.694-8.815-4.802 0-8.695 3.947-8.695 8.815 0 .482.039.956.112 1.418.669 4.194 4.257 7.397 8.583 7.397 4.325 0 7.913-3.203 8.582-7.397Z" fill="currentColor"/><path d="M71.005 18.549c0-.337.13-.66.365-.9.234-.24.552-.379.887-.387h7.133c5.057 0 8.385 2.703 8.385 7.13v.06c0 4.846-4.034 7.358-8.802 7.358h-5.435v6.801a1.282 1.282 0 0 1-.754 1.28 1.27 1.27 0 0 1-1.717-.758 1.282 1.282 0 0 1-.062-.522V18.549Zm8.067 10.968c3.706 0 6.14-1.994 6.14-4.986v-.06c0-3.21-2.395-4.875-5.961-4.875h-5.663v9.881l5.484.04ZM92.594 18.389a1.282 1.282 0 0 1 .754-1.28 1.269 1.269 0 0 1 1.717.758c.056.168.077.346.062.522v20.222a1.282 1.282 0 0 1-.754 1.28 1.27 1.27 0 0 1-1.717-.758 1.282 1.282 0 0 1-.063-.522V18.389ZM101.674 18.419a1.278 1.278 0 0 1 1.252-1.247h.347a1.535 1.535 0 0 1 1.282.738l13.601 17.4V18.36c0-.329.13-.643.361-.875a1.229 1.229 0 0 1 1.742 0c.231.232.361.546.361.874v20.292c.005.154-.021.308-.076.452a1.13 1.13 0 0 1-1.077.725h-.129a1.69 1.69 0 0 1-1.311-.778l-13.909-17.81v17.41a1.257 1.257 0 0 1-1.192 1.247 1.23 1.23 0 0 1-1.212-1.246V18.419h-.04ZM126.938 18.389a1.284 1.284 0 0 1 .755-1.28 1.267 1.267 0 0 1 1.45.306 1.287 1.287 0 0 1 .329.974v12.295l12.756-13.133c.262-.271.617-.432.994-.448.325.012.633.15.86.383.227.234.357.546.362.873a1.28 1.28 0 0 1-.418.897l-7.948 7.898 8.574 10.53c.224.26.348.593.348.937a1.309 1.309 0 0 1-1.341 1.276 1.228 1.228 0 0 1-.994-.578l-8.365-10.46-4.828 4.846v4.886a1.278 1.278 0 0 1-.37.895 1.26 1.26 0 0 1-2.154-.895V18.389h-.01Z" fill="currentColor"/></symbol></svg>